<svg width="12" height="18" viewBox="0 0 12 18" fill="none" xmlns="http://www.w3.org/2000/svg">
	<g clip-path="url(#clip0_101_16)">
		<path d="M3.20001 16.92C3.20001 16.73 3.27001 16.54 3.42001 16.39L9.94001 9.87002C10.42 9.39002 10.42 8.61002 9.94001 8.13002L3.42001 1.61002C3.13001 1.32002 3.13001 0.840019 3.42001 0.550019C3.71001 0.260019 4.19001 0.260019 4.48001 0.550019L11 7.07002C12.06 8.13002 12.06 9.86002 11 10.93L4.48001 17.45C4.19001 17.74 3.71001 17.74 3.42001 17.45C3.28001 17.3 3.20001 17.11 3.20001 16.92Z" fill="#7f7f7f" />
		<path d="M0.719994 14.47C0.719994 14.28 0.789993 14.09 0.939993 13.94L4.94 9.86998C5.42 9.38998 5.42 8.60998 4.94 8.12998L0.439993 3.55997C0.149993 3.26997 0.149993 2.78997 0.439993 2.49997C0.729993 2.20997 1.20999 2.20997 1.49999 2.49997L6 7.06998C7.5 8.5 7.49999 9.42998 6 10.93L1.99999 15C1.70999 15.29 1.22999 15.29 0.939993 15C0.799993 14.85 0.719994 14.66 0.719994 14.47Z" fill="#7f7f7f" />
	</g>
	<defs>
		<clipPath id="clip0_101_16">
			<rect width="18" height="12" fill="#7f7f7f" transform="translate(12) rotate(90)" />
		</clipPath>
	</defs>
</svg>
